<svg xmlns="http://www.w3.org/2000/svg" width="117" height="30" viewBox="0 11 117 30"><path fill="#FFF" d="M15.898 19.463h-3.566v3.48h3.566v-3.48zm4.375 0h-3.566v3.48h3.566v-3.48zm-8.75 4.462H7.955v3.48h3.566v-3.48zm8.75 0h-3.566v3.48h3.566v-3.48zm-4.375 0h-3.566v3.48h3.566v-3.48zm13.125 0h-3.566v3.48h3.566v-3.48zm40.645 1.212c1.44 0 2.564-.458 3.373-1.374.812-.916 1.215-2.174 1.215-3.773 0-1.604-.403-2.862-1.21-3.772-.807-.91-1.928-1.367-3.363-1.367-1.477 0-2.615.45-3.418 1.344-.803.896-1.203 2.157-1.203 3.784 0 1.64.4 2.91 1.2 3.812.8.897 1.935 1.347 3.408 1.347zm-2.512-8.2c.576-.7 1.418-1.05 2.525-1.05 1.103 0 1.937.35 2.5 1.043.56.695.843 1.715.843 3.06 0 1.358-.28 2.386-.848 3.083-.566.697-1.4 1.046-2.51 1.046-1.098 0-1.936-.35-2.512-1.05-.576-.7-.864-1.727-.864-3.08 0-1.336.29-2.353.866-3.052zM24.648 15h-3.566v3.48h3.566V15zm0 4.463h-3.566v3.48h3.566v-3.48zm74.83 4.498H95.07v-3.677h4.143V19.26H95.07v-3.22h4.408v-1.033h-5.57V25h5.57v-1.04zm-74.83-.035h-3.566v3.48h3.566v-3.48zm33.79-8.92h-3.063V25h2.77c1.68 0 2.97-.437 3.865-1.31.895-.872 1.344-2.134 1.344-3.783 0-1.545-.432-2.748-1.293-3.608-.86-.863-2.07-1.294-3.623-1.294zm2.636 7.968c-.696.682-1.738 1.022-3.124 1.022h-1.415V16.01h1.688c1.29 0 2.262.33 2.917.992.652.66.98 1.643.98 2.946 0 1.335-.35 2.344-1.046 3.025zm31.31-7.967H91.01l-4.53 4.956v-4.956h-1.163V25h1.162v-3.917l1.044-.93L91.167 25h1.366l-4.17-5.653 4.022-4.34zM88.76 36.514h.002c0 .84-.23 1.482-.686 1.932-.455.45-1.104.674-1.947.674-.886 0-1.556-.225-2.01-.67-.457-.446-.685-1.088-.685-1.922v-6.52h-1.162v6.438c0 1.148.328 2.052.988 2.707.658.656 1.59.984 2.792.984s2.148-.326 2.838-.98c.688-.65 1.03-1.546 1.03-2.685v-6.468h-1.16v6.51zM83.135 23.73c-.895.25-1.688.375-2.386.375-1.137 0-2.01-.356-2.623-1.07-.61-.713-.92-1.724-.92-3.03 0-1.272.318-2.273.955-3.006.635-.73 1.502-1.098 2.602-1.098.756 0 1.512.178 2.27.533l.492-.998c-.785-.383-1.7-.574-2.748-.574-.984 0-1.84.21-2.567.63s-1.28 1.017-1.667 1.79c-.386.774-.577 1.677-.577 2.707 0 1.646.398 2.914 1.2 3.81.8.893 1.937 1.34 3.407 1.34 1.017 0 1.87-.13 2.562-.39v-1.02zm-70.2 8.7c-.547 0-.993.436-.993.97s.446.97.994.97.994-.436.994-.97c0-.535-.446-.97-.994-.97zm93.086-11.92c1.34-.466 2.01-1.36 2.01-2.68 0-.944-.292-1.65-.878-2.12s-1.49-.704-2.717-.704h-2.742V25h1.162v-4.156h2.086L107.36 25h1.374l-2.713-4.49zm-1.57-.664h-1.595v-3.82h1.512c.86 0 1.486.145 1.877.437.39.292.584.768.584 1.43 0 .65-.19 1.14-.574 1.466-.383.323-.984.486-1.805.486zm-8.82 10.16h-3.06V40h2.77c1.68 0 2.97-.438 3.865-1.31.896-.872 1.343-2.134 1.343-3.784 0-1.545-.432-2.748-1.292-3.607-.86-.862-2.07-1.294-3.625-1.294zm2.64 7.967c-.697.682-1.738 1.022-3.123 1.022H93.73v-7.983h1.688c1.29 0 2.262.33 2.915.99.653.66.98 1.643.98 2.945 0 1.336-.346 2.345-1.043 3.026zM36.36 25.35c-.168-1.41-1.116-2.645-2.244-3.53l-.448-.35-.376.424c-.755.853-.98 2.27-.877 3.358.076.8.333 1.612.838 2.255-.383.225-.82.403-1.208.532-.79.26-1.65.405-2.485.405H6.1l-.05.53c-.167 1.76.08 3.52.826 5.13l.32.64.037.06C9.44 38.46 13.313 40 17.535 40c8.173 0 14.914-3.562 18.01-11.086 2.068.104 4.184-.492 5.197-2.42L41 26l-.49-.275c-1.198-.674-2.793-.767-4.15-.376zm-23.424 9.89c-1.04 0-1.887-.826-1.887-1.84 0-1.016.846-1.842 1.886-1.842s1.887.826 1.887 1.842c0 1.014-.846 1.84-1.887 1.84zM48 40h1V15h-1v25zm17.367-9.994h-1.16V40h5.57v-1.053h-4.41v-8.94zm10.207-.156c-1.477 0-2.616.447-3.418 1.342-.803.896-1.203 2.158-1.203 3.785 0 1.64.4 2.91 1.2 3.812.8.898 1.935 1.35 3.407 1.35 1.438 0 2.563-.46 3.373-1.375.81-.916 1.213-2.174 1.213-3.773 0-1.604-.402-2.86-1.21-3.77-.806-.915-1.926-1.372-3.362-1.372zm2.494 8.222c-.564.697-1.4 1.045-2.508 1.045-1.1 0-1.937-.35-2.512-1.05-.578-.698-.865-1.726-.865-3.08 0-1.333.287-2.35.865-3.05.575-.7 1.418-1.05 2.523-1.05 1.105 0 1.94.347 2.5 1.042.563.693.845 1.714.845 3.058.002 1.36-.28 2.387-.847 3.084zM59.652 30.9c.758 0 1.514.18 2.27.533l.492-.998c-.784-.383-1.7-.574-2.748-.574-.984 0-1.84.212-2.567.63-.728.42-1.284 1.018-1.67 1.79-.384.776-.577 1.68-.577 2.708 0 1.646.4 2.914 1.2 3.81.8.894 1.936 1.34 3.408 1.34 1.018 0 1.87-.13 2.564-.39v-1.02c-.895.25-1.688.375-2.387.375-1.135 0-2.01-.355-2.622-1.068-.613-.715-.92-1.725-.92-3.032 0-1.27.32-2.272.955-3.005.638-.73 1.505-1.098 2.602-1.098z"></path></svg>
